<?xml version="1.0"?>
<svg xmlns="http://www.w3.org/2000/svg" id="Outline" viewBox="0 0 64 64" width="512" height="512"><rect x="10" y="51" width="2" height="11"/><rect x="46" y="51" width="2" height="11"/><path d="M59.414,21H61a1,1,0,0,0,0-2H59.414l2.293-2.293A1,1,0,0,0,61,15H54a1,1,0,0,0-.707.293L49.586,19H46.949A17.989,17.989,0,1,0,22,36.583V39c-.009,0-.018,0-.027,0-.031,0-.062,0-.094.005v0l-10.06,1.228a10.013,10.013,0,0,0-8.8,8.589L2,61.923,4,62.077,5,49.044a8,8,0,0,1,7.047-6.821l7.683-.939-5.524,7.1A1,1,0,0,0,14.4,49.8l3.078,2.308-2.185,2.185a1,1,0,0,0-.212,1.1l3,7,1.838-.788-2.733-6.377,2.521-2.522A1,1,0,0,0,19.6,51.2l-3.186-2.389L21,42.914V62h2V45.516l5.606,2.4a1,1,0,0,0,.788,0L35,45.516V62h2V42.914l4.586,5.9L38.4,51.2a1,1,0,0,0-.107,1.507l2.521,2.522-2.733,6.377,1.838.788,3-7a1,1,0,0,0-.212-1.1l-2.185-2.185L43.6,49.8a1,1,0,0,0,.19-1.414l-5.524-7.1,7.694.941a7.983,7.983,0,0,1,7.029,6.754L54,62.077,56,61.923,54.976,48.761a9.994,9.994,0,0,0-8.785-8.523l-10.07-1.23v0c-.034,0-.068,0-.1,0L36,39v-2.42A18.022,18.022,0,0,0,46.949,21h2.637l3.707,3.707A1,1,0,0,0,54,25h7a1,1,0,0,0,.707-1.707Zm-5-4h4.172l-2,2H52.414ZM29,45.912l-6-2.571V41.517l5.606,2.4a1.007,1.007,0,0,0,.788,0L35,41.517v1.824Zm5-6.143-5,2.143-5-2.143v-2.49a17.7,17.7,0,0,0,10,0ZM29,36A16,16,0,1,1,44.949,19h-2a14,14,0,1,0,0,2h2A16.007,16.007,0,0,1,29,36Zm9.949-17a10,10,0,1,0,0,2h2a12,12,0,1,1,0-2ZM34.91,19a6,6,0,1,0,0,2h2.021a8,8,0,1,1,0-2ZM29,21h3.858a4,4,0,1,1,0-2H29a1,1,0,0,0,0,2Zm25.414,2-2-2h4.172l2,2Z"/></svg>
