<svg id="Layer_1" enable-background="new 0 0 64 64" height="512" viewBox="0 0 64 64" width="512" xmlns="http://www.w3.org/2000/svg"><path d="m5 57h3.8l-.6 3h-2.2v2h12v-2h-2.2l-.6-3h3.8c1.7 0 3-1.3 3-3v-8c0-1.7-1.3-3-3-3h-6v-1c0-.6.4-1 1-1h11c1.7 0 3-1.3 3-3v-9h-2v9c0 .6-.4 1-1 1h-11c-1.7 0-3 1.3-3 3v1h-6c-1.7 0-3 1.3-3 3v8c0 1.7 1.3 3 3 3zm8.8 3h-3.6l.6-3h2.4zm5.2-5h-14c-.6 0-1-.4-1-1v-1h16v1c0 .6-.4 1-1 1zm-14-10h14c.6 0 1 .4 1 1v5h-16v-5c0-.6.4-1 1-1z"/><path d="m61 46c0-1.7-1.3-3-3-3h-5v-1c0-1.7-1.3-3-3-3h-11c-.6 0-1-.4-1-1v-9h-2v9c0 1.7 1.3 3 3 3h11c.6 0 1 .4 1 1v1h-5c-1.7 0-3 1.3-3 3v6.9l-1 3.9v2.2c0 1.7 1.3 3 3 3h14c1.7 0 3-1.3 3-3v-2l-1-4.1zm-1.8 8 .5 2h-15.4l.5-2zm-14.2-8c0-.6.4-1 1-1h12c.6 0 1 .4 1 1v6h-14zm14 14h-14c-.6 0-1-.4-1-1v-1h16v1c0 .6-.4 1-1 1z"/><path d="m31 29v14h-2c-1.7 0-3 1.3-3 3v13c0 1.7 1.3 3 3 3h6c1.7 0 3-1.3 3-3v-13c0-1.7-1.3-3-3-3h-2v-14zm4 31h-6c-.6 0-1-.4-1-1v-1h8v1c0 .6-.4 1-1 1zm1-14v10h-8v-10c0-.6.4-1 1-1h6c.6 0 1 .4 1 1z"/><path d="m46 32h-6v2h6c6.6 0 12-5.4 12-12s-5.4-12-12-12c-.1 0-.1 0-.2 0-4.4-7.6-14.1-10.3-21.8-5.9-2.4 1.4-4.5 3.4-5.9 5.9-.1 0-.1 0-.2 0-6.6 0-12 5.4-12 12s5.4 12 12 12h6v-2h-6c-5.5 0-10-4.5-10-10 0-5.2 4-9.5 9.2-10-.7 1.9-1.1 4-1.1 6h2c0-7.7 6.3-14 14-14s14 6.3 14 14h2c0-2-.4-4.1-1.2-6 5.5.5 9.6 5.3 9.1 10.8-.4 5.2-4.7 9.2-9.9 9.2z"/></svg>