<svg id="Layer_1" data-name="Layer 1" xmlns="http://www.w3.org/2000/svg" viewBox="0 0 64 64"><g id="_1278338" data-name=" 1278338"><path id="Path_17" data-name="Path 17" d="M20.84,31.88A11.12,11.12,0,1,0,32,20.76h0A11.13,11.13,0,0,0,20.84,31.88Zm20.33,0A9.21,9.21,0,1,1,32,22.67h0a9.23,9.23,0,0,1,9.21,9.21Z"/><path id="Path_18" data-name="Path 18" d="M15.29,12.43a2.94,2.94,0,1,0,2.94,2.94A2.94,2.94,0,0,0,15.29,12.43Zm0,4a1,1,0,1,1,1-1h0A1,1,0,0,1,15.29,16.4Z"/><path id="Path_19" data-name="Path 19" d="M48.6,12.43a2.94,2.94,0,1,0,2.94,2.94A2.94,2.94,0,0,0,48.6,12.43Zm0,4a1,1,0,1,1,1-1h0A1,1,0,0,1,48.6,16.4Z"/><path id="Path_20" data-name="Path 20" d="M15.29,45.27a2.94,2.94,0,1,0,2.94,2.94A2.94,2.94,0,0,0,15.29,45.27Zm0,4a1,1,0,1,1,1-1h0A1,1,0,0,1,15.29,49.24Z"/><path id="Path_21" data-name="Path 21" d="M48.6,45.27a2.94,2.94,0,1,0,2.94,2.94A2.93,2.93,0,0,0,48.6,45.27Zm0,4a1,1,0,1,1,1-1h0A1,1,0,0,1,48.6,49.24Z"/><path id="Path_22" data-name="Path 22" d="M35.69,32a3.88,3.88,0,1,1-6.44-2.91,1,1,0,0,0,.05-1.35A1,1,0,0,0,28,27.62a5.78,5.78,0,1,0,8.16.52c-.12-.14-.26-.28-.39-.41a1,1,0,0,0-1.31,1.4A3.84,3.84,0,0,1,35.69,32Z"/><path id="Path_23" data-name="Path 23" d="M30.86,26.7v3.67a1,1,0,0,0,1.91,0h0V26.7a1,1,0,0,0-1.91,0Z"/><path id="Path_24" data-name="Path 24" d="M61.07,43.9a3.3,3.3,0,0,0-3.17,2.36H55.05a1,1,0,0,0-.54.17V37.91a1,1,0,0,0-1.91,0h0V50.47a2.07,2.07,0,0,1-2.05,2.05H13.38a2.06,2.06,0,0,1-2.05-2.05V24.21a1,1,0,1,0-1.91,0h0V35.54H3a1,1,0,0,0-1,1H2v8.58a3.32,3.32,0,1,0,1.91,0V37.45H9.41v13a4,4,0,0,0,4,4h2.87a1,1,0,0,0,0,.25v2.84a3.31,3.31,0,1,0,1.91,0V54.68a1,1,0,0,0,0-.25H34.79v6.2a1,1,0,0,0,1,.95h8.58a3.31,3.31,0,1,0,0-1.91H36.69V54.43H50.55a4,4,0,0,0,4-4V48a1,1,0,0,0,.54.17H57.9a3.31,3.31,0,1,0,3.17-4.27ZM4.4,48.24A1.4,1.4,0,1,1,3,46.83,1.4,1.4,0,0,1,4.4,48.24ZM18.57,60.69a1.41,1.41,0,1,1-1.41-1.4h0A1.4,1.4,0,0,1,18.57,60.69Zm28.92-1.47a1.41,1.41,0,1,1-1.41,1.4,1.4,1.4,0,0,1,1.41-1.4Zm13.58-10.6a1.41,1.41,0,1,1,1.4-1.41A1.41,1.41,0,0,1,61.07,48.62Z"/><path id="Path_25" data-name="Path 25" d="M2.94,21.23a3.33,3.33,0,0,0,3.17-2.36H9.42v1.57a1,1,0,0,0,1.91,0V13.3a2.06,2.06,0,0,1,2.05-2.06H50.55A2.07,2.07,0,0,1,52.6,13.3V34.14a1,1,0,1,0,1.91,0V29.59H61a1,1,0,0,0,1-.95h0V20.06a3.32,3.32,0,1,0-1.91,0v7.62H54.5V13.3a4,4,0,0,0-4-4H47.41V6.48a3.31,3.31,0,1,0-1.91,0V9.32H28.84v-6a1,1,0,0,0-.95-1H19.31a3.31,3.31,0,1,0,0,1.9h7.62v5H13.38a4,4,0,0,0-4,4V17H6.1a3.31,3.31,0,1,0-3.16,4.27ZM59.6,16.89A1.41,1.41,0,1,1,61,18.3h0a1.41,1.41,0,0,1-1.4-1.41ZM45.06,3.31a1.4,1.4,0,1,1,1.4,1.4h0A1.4,1.4,0,0,1,45.06,3.31ZM16.14,4.78a1.41,1.41,0,1,1,1.4-1.41h0A1.41,1.41,0,0,1,16.14,4.78ZM2.94,16.51a1.41,1.41,0,1,1-1.41,1.41h0A1.41,1.41,0,0,1,2.94,16.51Z"/></g></svg>