<svg id="Layer_1" data-name="Layer 1" xmlns="http://www.w3.org/2000/svg" viewBox="0 0 64 64"><path d="M25.75,34.44c-.23-1-.48-1.84-.59-2.68A6.09,6.09,0,0,1,27,26.23a5.56,5.56,0,0,1,5.75-1.29,5.62,5.62,0,0,1,3.93,4.26A7.4,7.4,0,0,1,36,34.33c2.2,1.12,4,2.62,4.37,5.33a11.25,11.25,0,0,0,1.91-3.45h2.17A13.36,13.36,0,0,1,40,43.46a14,14,0,0,1-7.85,3.29v3.4c4,1.76,5.72,4.36,5,7.6a6.28,6.28,0,0,1-12.31-.19c-.6-3.24,1.16-5.86,5.06-7.39V44.6c.6,0,1.06-.1,1.52-.09A11.48,11.48,0,0,0,36.81,43a2.41,2.41,0,0,0,1.38-2.16A4.13,4.13,0,0,0,36.24,37c-.42-.3-.9-.5-1.39-.78-1.12,1-2.3,2-3.83,2a4.85,4.85,0,0,1-3.84-2c-1.5.77-2.84,1.56-3.28,3.29a2.9,2.9,0,0,0,1.57,3.64c.69.36,1.4.66,2.15,1V46.3a13.4,13.4,0,0,1-7.29-4.5A14.12,14.12,0,0,1,17.07,34H13.68c-1.79,4-4.37,5.72-7.59,5a6.28,6.28,0,0,1,.29-12.33c2.5-.45,5.9.67,7.25,5.09l2.74,0h2.86c0,.6.1,1.14.11,1.68a11.69,11.69,0,0,0,2.22,6.37A7.14,7.14,0,0,1,25.75,34.44Zm8.83-3.59c0-.25,0-.51,0-.77a3.45,3.45,0,0,0-3.06-3.16,3.51,3.51,0,0,0-3.95,2.38,5.87,5.87,0,0,0,1.76,5.95A2.4,2.4,0,0,0,32.88,35,5.66,5.66,0,0,0,34.58,30.85ZM11.35,32.94a4.07,4.07,0,0,0-3.84-4.19,3.9,3.9,0,0,0-4.13,4c-.07,2.35,1.56,4,4.05,4.14C9.42,37.06,11.32,35,11.35,32.94ZM31,52.48a3.94,3.94,0,0,0-4,4,4.05,4.05,0,0,0,8.1,0A4,4,0,0,0,31,52.48Z"/><path d="M32.07,15.53V21.1C26,21,21.87,23.77,19.71,29.45H17.44c2-6.24,6.12-9.63,12.4-10.59V15.53c-4-1.79-5.73-4.38-5-7.6a6.28,6.28,0,0,1,12.31.19C37.76,11.32,36,14,32.07,15.53ZM31,13.2a4,4,0,0,0,4.05-4,4.05,4.05,0,0,0-8.1,0A4,4,0,0,0,31,13.2Z"/><path d="M48.29,33.92H42.76c0-.51-.09-.93-.11-1.34a11.34,11.34,0,0,0-6.86-10.41c-.47-.23-.94-.42-1.42-.63V19.31C40.63,21.22,44,25.4,45,31.7h3.43A6.56,6.56,0,0,1,52,27.17a6,6,0,0,1,4-.43,6.33,6.33,0,0,1,4.83,6.38A6.42,6.42,0,0,1,55.71,39C52.6,39.69,50,38,48.29,33.92Zm2.35-1.15a4,4,0,0,0,4,4.13,4.21,4.21,0,0,0,4-3.85,4.11,4.11,0,0,0-4.09-4.26A3.94,3.94,0,0,0,50.64,32.77Z"/><path d="M20.79,21.16l-1.48,1.48-2.19-2.1c-3.16,1.27-5.57.7-7.12-1.64a5.11,5.11,0,0,1,7.16-7c2.24,1.52,2.77,3.93,1.53,7Zm-3.58-5a3,3,0,0,0-2.89-2.91,3.06,3.06,0,0,0-2.94,2.87,3,3,0,0,0,3,3A3,3,0,0,0,17.21,16.14Z"/><path d="M42.59,22.72l-1.44-1.53L43.31,19a5.52,5.52,0,0,1-.39-4.69,5.11,5.11,0,1,1,9,4.75c-1.58,2.25-3.93,2.77-7,1.51Zm5.12-9.49a3.06,3.06,0,0,0-3,2.85,2.92,2.92,0,1,0,5.83.07A3,3,0,0,0,47.71,13.23Z"/><path d="M17.36,45.27,19.25,43l1.45,1.65-2.05,2.1a5.47,5.47,0,0,1,.48,4.48A5,5,0,0,1,17,53.86a5.1,5.1,0,0,1-6.85-7.26C11.67,44.4,14.13,43.87,17.36,45.27Zm-.15,4.24a3,3,0,0,0-2.89-2.9,2.92,2.92,0,1,0,0,5.84A3.05,3.05,0,0,0,17.21,49.51Z"/><path d="M41.18,44.52l1.5-1.47,2.18,2.09C48,43.89,50.5,44.47,52,46.77a5.1,5.1,0,0,1-7.14,7c-2.26-1.52-2.8-3.95-1.54-7Zm9.41,5a2.92,2.92,0,1,0-2.84,3A3,3,0,0,0,50.59,49.49Z"/></svg>