<svg id="Layer_1" data-name="Layer 1" xmlns="http://www.w3.org/2000/svg" viewBox="0 0 64 64"><path d="M32,1.5A30.16,30.16,0,0,0,13.37,8a1.79,1.79,0,1,0,2.19,2.82A26.62,26.62,0,0,1,32,5.07a27,27,0,0,1,25.4,18H53.45A23.24,23.24,0,0,0,8.77,32,22.92,22.92,0,0,0,11,42a1.78,1.78,0,0,0,3.22-1.54,19.66,19.66,0,0,1,16-28V16A16.08,16.08,0,0,0,19.44,42l-7.69,7.69a26.62,26.62,0,0,1-.93-34.16A1.79,1.79,0,1,0,8,13.37,30.16,30.16,0,0,0,1.5,32,30.5,30.5,0,1,0,32,1.5ZM14.28,52.25,22,44.56A16.07,16.07,0,0,0,48,33.79h3.6a19.64,19.64,0,0,1-5.68,12.1h0a19.63,19.63,0,0,1-22.36,3.84A1.78,1.78,0,0,0,22,53a23.19,23.19,0,0,0,25.12-3.33l2.61,2.62a26.84,26.84,0,0,1-35.44,0Zm38-2.53-2.62-2.61A23.14,23.14,0,0,0,55.23,32a1.79,1.79,0,0,0-1.78-1.79H48A16.16,16.16,0,0,0,40,18.08a1.79,1.79,0,0,0-1.79,3.09A12.51,12.51,0,1,1,19.62,33.79h5.23A1.79,1.79,0,0,0,26.64,32a5.35,5.35,0,1,1,2.55,4.57,1.78,1.78,0,0,0-1.87,3A8.94,8.94,0,1,0,32,23.06a9,9,0,0,0-8.76,7.15H19.62A12.53,12.53,0,0,1,32,19.49a1.79,1.79,0,0,0,1.79-1.79V12.42a19.74,19.74,0,0,1,16.75,13,1.78,1.78,0,0,0,1.68,1.19h6.17a26.85,26.85,0,0,1-6.14,23.08Z"/></svg>