<svg id="Layer_1" data-name="Layer 1" xmlns="http://www.w3.org/2000/svg" viewBox="0 0 64 64"><path d="M59.44,28.13a1.25,1.25,0,0,0,0,2.5,1.91,1.91,0,1,1,0,3.81H57.08A22.68,22.68,0,0,0,45.14,15.69a12.24,12.24,0,0,0,.13-1.81,13.35,13.35,0,1,0-26.69,0c0,.29,0,.57,0,.85l-.07,0L13,11.56a2.27,2.27,0,0,0-3.1.82,2.3,2.3,0,0,0-.31,1.14v8a22.7,22.7,0,0,0-3.73,6.76H3.46A3.46,3.46,0,0,0,0,31.73v7.92a3.46,3.46,0,0,0,3.46,3.46H5.88a22.8,22.8,0,0,0,8.29,11.07v5.55a2.66,2.66,0,0,0,2.65,2.65h4.65a2.63,2.63,0,0,0,2.35-1.44l1.37-2.66c.71.07,1.43.1,2.15.1h7.08c.71,0,1.43,0,2.15-.1l1.36,2.66a2.62,2.62,0,0,0,2.36,1.43h4.64a2.65,2.65,0,0,0,2.65-2.64V54.18a22.68,22.68,0,0,0,9.5-17.24h2.36a4.41,4.41,0,1,0,.3-8.81ZM31.92,3a10.85,10.85,0,0,1,9.42,16.24,19.48,19.48,0,0,0-5.72-2.05,3.63,3.63,0,0,0,.44-1.74,4,4,0,0,0-4.14-3.87,1.52,1.52,0,0,1-1.64-1.37,1.67,1.67,0,0,1,3.29,0,1.25,1.25,0,1,0,2.49,0,3.92,3.92,0,0,0-2.89-3.69V6.38a1.25,1.25,0,0,0-2.49,0h0v.17a3.92,3.92,0,0,0-2.89,3.69,4,4,0,0,0,4.14,3.87,1.53,1.53,0,0,1,1.64,1.38,1.68,1.68,0,0,1-1.94,1.35,1.7,1.7,0,0,1-1.35-1.35,1.25,1.25,0,1,0-2.49,0,3.53,3.53,0,0,0,.45,1.74,19.4,19.4,0,0,0-5.72,2.06A10.86,10.86,0,0,1,31.92,3ZM45.64,52.49a1.23,1.23,0,0,0-.55,1v6.2a.16.16,0,0,1-.16.15H40.29a.16.16,0,0,1-.14-.08l-1.76-3.42a1.24,1.24,0,0,0-1.27-.67,20.3,20.3,0,0,1-2.7.18H27.34a20.18,20.18,0,0,1-2.7-.18,1.24,1.24,0,0,0-1.27.67L21.61,59.8a.16.16,0,0,1-.14.08H16.82a.15.15,0,0,1-.15-.15h0v-6.2a1.26,1.26,0,0,0-.55-1A20.3,20.3,0,0,1,8,41.51a1.23,1.23,0,0,0-1.19-.89H3.46a1,1,0,0,1-1-1V36.94H4.24a1.25,1.25,0,0,0,0-2.49H2.49V31.73a1,1,0,0,1,1-1H6.79A1.25,1.25,0,0,0,8,29.88a20,20,0,0,1,3.83-7.12,1.29,1.29,0,0,0,.29-.8v-8l5.73,3.33a1.24,1.24,0,0,0,1.14.05h0a13.41,13.41,0,0,0,1.39,3.34,19.78,19.78,0,0,0-2.31,2,1.25,1.25,0,1,0,1.77,1.76,17.1,17.1,0,0,1,24.14,0,1.24,1.24,0,1,0,1.79-1.73l0,0a20.93,20.93,0,0,0-2.33-2,14.07,14.07,0,0,0,1.1-2.4,20.21,20.21,0,0,1,1.09,34.28Z"/><path d="M15.42,27a1.25,1.25,0,1,0,1.25,1.25A1.26,1.26,0,0,0,15.42,27Z"/></svg>