<svg id="Layer_1" data-name="Layer 1" xmlns="http://www.w3.org/2000/svg" viewBox="0 0 64 64"><path d="M31.46,53.41a22,22,0,1,1,22-22A22,22,0,0,1,31.46,53.41Zm0-40.79A18.83,18.83,0,1,0,50.29,31.45,18.84,18.84,0,0,0,31.46,12.62Z"/><path d="M31.46,12.37a1.54,1.54,0,0,1-1.53-1.54V1.61a1.54,1.54,0,1,1,3.07,0v9.22A1.54,1.54,0,0,1,31.46,12.37Z"/><path d="M31.46,63a1.54,1.54,0,0,1-1.53-1.54V52.24a1.54,1.54,0,1,1,3.07,0v9.22A1.54,1.54,0,0,1,31.46,63Z"/><path d="M12.3,31.54a1.54,1.54,0,0,1-1.54,1.53H1.54a1.54,1.54,0,1,1,0-3.07h9.22A1.54,1.54,0,0,1,12.3,31.54Z"/><path d="M62.93,31.54a1.54,1.54,0,0,1-1.54,1.53H52.17a1.54,1.54,0,1,1,0-3.07h9.22A1.54,1.54,0,0,1,62.93,31.54Z"/><path d="M31.93,25.06a6.61,6.61,0,1,0,6.61,6.6h0A6.6,6.6,0,0,0,31.93,25.06Zm0,9.91a3.31,3.31,0,1,1,3.31-3.31A3.31,3.31,0,0,1,31.93,35Z"/></svg>