<svg id="Layer_1" data-name="Layer 1" xmlns="http://www.w3.org/2000/svg" viewBox="0 0 64 64"><path d="M32.11,23a3.58,3.58,0,1,0-3.58-3.58A3.58,3.58,0,0,0,32.11,23Zm0-4.77a1.19,1.19,0,1,1-1.2,1.19A1.19,1.19,0,0,1,32.11,18.18Z"/><path d="M19.74,25a1.18,1.18,0,0,0-1.68,0l-3.37,3.37a1.18,1.18,0,0,0,0,1.68l.84.84-.84.85h0a1.18,1.18,0,0,0,0,1.68l3.37,3.37a1.18,1.18,0,0,0,1.68,0h0l9.58-9.58a8.13,8.13,0,0,0,2.79.5,8.34,8.34,0,1,0-8.34-8.34,8.12,8.12,0,0,0,.49,2.79l-3.68,3.68Zm6.77-1.72a1.21,1.21,0,0,0,.24-1.36,5.85,5.85,0,0,1-.6-2.55,6,6,0,1,1,6,6,5.81,5.81,0,0,1-2.55-.6A1.2,1.2,0,0,0,28.2,25l-9.3,9.3-1.69-1.68.85-.84a1.21,1.21,0,0,0,0-1.69l-.85-.84,1.69-1.68.84.84a1.2,1.2,0,0,0,1.68,0Z"/><circle cx="12.21" cy="9.01" r="1.19"/><path d="M51.33,27.38l0,0A4.51,4.51,0,0,1,50,24.14,22.64,22.64,0,0,0,15.8,4.66,1.19,1.19,0,0,0,17,6.71,20.25,20.25,0,0,1,47.59,24.14a6.88,6.88,0,0,0,2,4.9s5.24,5.48,5.25,5.48a1.18,1.18,0,0,1,.31,1.12,1.14,1.14,0,0,1-.77.85L50.8,37.66a1.18,1.18,0,0,0-.72,1.61c.93,2.14,1.28,2.92,1.3,3a1.16,1.16,0,0,1,.06.93,1.2,1.2,0,0,1-.63.68l-1,.47a1.19,1.19,0,0,0-.35,1.93l.4.4a1.18,1.18,0,0,1,0,1.68l-.7.7a1.2,1.2,0,0,0-.34.84,3.59,3.59,0,0,1-3.58,3.58H40.45c-3.59,0-6.5,3.19-7.06,6.67H16.77c.86-8.43-1.94-13.73-4.65-18.87-2.47-4.71-5-9.57-5-17.11A20.19,20.19,0,0,1,9.91,13.82a1.19,1.19,0,1,0-2-1.22A22.57,22.57,0,0,0,4.7,24.14C4.7,32.27,7.4,37.4,10,42.36c2.79,5.31,5.43,10.32,4.23,18.78a1.19,1.19,0,0,0,1.18,1.36H34.49a1.19,1.19,0,0,0,1.19-1.19c0-2.54,2.08-5.48,4.77-5.48h4.76a6,6,0,0,0,5.94-5.44l.37-.37a3.6,3.6,0,0,0,.64-4.19,3.59,3.59,0,0,0,1.37-4.63l-.74-1.68,2.36-.76a3.58,3.58,0,0,0,1.41-5.91Z"/></svg>