<svg id="Layer_1" data-name="Layer 1" xmlns="http://www.w3.org/2000/svg" viewBox="0 0 64 64"><g id="Outline"><path d="M10.16,33l3.31-1.58,2.33,1L17,35.8a1,1,0,0,0,.93.66h4.31a1,1,0,0,0,.94-.66l1.22-3.45,2.33-1L30.07,33a1,1,0,0,0,1.13-.2l3.05-3a1,1,0,0,0,.19-1.13l-1.57-3.3,1-2.33,3.45-1.23a1,1,0,0,0,.66-.93V16.47a1,1,0,0,0-.66-.93l-3.45-1.23-1-2.32,1.57-3.31a1,1,0,0,0-.19-1.13l-3.05-3a1,1,0,0,0-1.13-.19L26.76,5.88l-2.33-1L23.21,1.46a1,1,0,0,0-.94-.65H18a1,1,0,0,0-.93.65L15.8,4.91l-2.33,1L10.16,4.31A1,1,0,0,0,9,4.5L6,7.55a1,1,0,0,0-.2,1.13L7.36,12l-1,2.32L3,15.54a1,1,0,0,0-.66.93v4.32a1,1,0,0,0,.66.93L6.4,23l1,2.33-1.57,3.3A1,1,0,0,0,6,29.71l3,3a1,1,0,0,0,1.12.2Zm-.8-8-1.3-3.15a1,1,0,0,0-.58-.55L4.27,20.09V17.17L7.48,16a1,1,0,0,0,.58-.55l1.3-3.14a1,1,0,0,0,0-.81L7.88,8.46,9.94,6.4,13,7.86a1,1,0,0,0,.8,0L17,6.58A1,1,0,0,0,17.52,6l1.14-3.2h2.92L22.72,6a1,1,0,0,0,.55.59l3.14,1.3a1,1,0,0,0,.81,0L30.29,6.4l2.06,2.06-1.46,3.07a1,1,0,0,0,0,.81l1.3,3.14a1,1,0,0,0,.59.55L36,17.17v2.92l-3.2,1.14a1,1,0,0,0-.59.55l-1.3,3.15a1,1,0,0,0,0,.8l1.46,3.07-2.06,2.07-3.08-1.46a1,1,0,0,0-.8,0l-3.14,1.3a1,1,0,0,0-.55.58l-1.14,3.21H18.66l-1.14-3.21a1,1,0,0,0-.56-.58l-3.14-1.3a1,1,0,0,0-.8,0L9.94,30.87,7.88,28.8l1.46-3.07a1,1,0,0,0,0-.8Z"/><path d="M20.12,27.54a8.91,8.91,0,1,0-8.92-8.91A8.91,8.91,0,0,0,20.12,27.54Zm0-15.84a6.93,6.93,0,1,1-6.94,6.93A6.93,6.93,0,0,1,20.12,11.7Z"/><path d="M39.28,48.52,38,51.66a1,1,0,0,0,0,.81l1.46,3.07L37.4,57.6l-3.08-1.46a1,1,0,0,0-.8,0l-3.14,1.3a1,1,0,0,0-.56.59l-1.14,3.2H25.76L24.62,58a1,1,0,0,0-.55-.59l-3.14-1.3a1,1,0,0,0-.81,0L17.05,57.6,15,55.54l1.46-3.07a1,1,0,0,0,0-.81l-1.3-3.14a1,1,0,0,0-.58-.55l-3.21-1.14V43.91l3.21-1.14a1,1,0,0,0,.58-.55l1.3-3.15a1,1,0,0,0,0-.8l-1.76-3.7-1.79.85,1.57,3.3-1,2.33-3.45,1.23a1,1,0,0,0-.66.93v4.32a1,1,0,0,0,.66.93l3.45,1.23,1,2.33-1.57,3.3a1,1,0,0,0,.19,1.13l3.06,3a1,1,0,0,0,1.12.19l3.31-1.57,2.33,1,1.22,3.45a1,1,0,0,0,.94.65h4.31a1,1,0,0,0,.93-.65l1.23-3.45,2.33-1,3.31,1.57a1,1,0,0,0,1.12-.19l3.05-3a1,1,0,0,0,.2-1.13L40,52l1.13-2.74Z"/><path d="M41.35,34.29,38.3,31.24a1,1,0,0,0-1.12-.2l-3.71,1.77.85,1.78,3.08-1.46,2.06,2.07L38,38.27a1,1,0,0,0,0,.81l1.12,2.71L40.93,41l-1-2.31,1.57-3.3a1,1,0,0,0-.2-1.13Z"/><path d="M27.22,54.28a8.91,8.91,0,1,0-8.91-8.91A8.91,8.91,0,0,0,27.22,54.28Zm0-15.84a6.93,6.93,0,1,1-6.93,6.93A6.94,6.94,0,0,1,27.22,38.44Z"/><path d="M61.05,18.51,57.6,17.28l-1-2.32,1.57-3.31a1,1,0,0,0-.2-1.13l-3-3a1,1,0,0,0-1.12-.19L50.53,8.85l-2.33-1L47,4.44A1,1,0,0,0,46,3.78H41.73a1,1,0,0,0-.94.66L39.57,7.89,36.83,9l.76,1.83,3.14-1.3A1,1,0,0,0,41.28,9l1.14-3.2h2.92L46.48,9a1,1,0,0,0,.56.59l3.14,1.3a1,1,0,0,0,.8,0l3.08-1.46,2.06,2.06L54.66,14.5a1,1,0,0,0,0,.81l1.3,3.14a1,1,0,0,0,.58.55l3.21,1.14v2.92L56.52,24.2a1,1,0,0,0-.58.56l-1.3,3.14a1,1,0,0,0,0,.8l1.46,3.07-2.56,2.56,1.4,1.4,3-3a1,1,0,0,0,.2-1.12l-1.57-3.31,1-2.33,3.45-1.23a1,1,0,0,0,.66-.93V19.44a1,1,0,0,0-.66-.93Z"/><path d="M43.88,28.53a6.91,6.91,0,0,1-6.43-4.33l-1.83.74a8.91,8.91,0,1,0,4.92-11.6,8.75,8.75,0,0,0-1.11.54l1,1.72a6.93,6.93,0,1,1,3.46,12.93Z"/><path d="M55.12,38.44H51.81v-4a3,3,0,1,0-6,0V43l-.66-.67a3.09,3.09,0,0,0-4.37,4.37l5,5v1.57h-1a1,1,0,0,0-1,1v8.91h2V55.27H57.75v7.92h2V54.28a1,1,0,0,0-1-1h-1V51.72l2-2a6.59,6.59,0,0,0-4.66-11.25Zm3.26,9.85-2.32,2.32a1,1,0,0,0-.29.7v2H47.84v-2a1,1,0,0,0-.29-.7l-5.32-5.33a1.11,1.11,0,1,1,1.55-1.58h0l2.35,2.36a1,1,0,0,0,1.69-.7V34.48a1,1,0,0,1,2,0v5a1,1,0,0,0,1,1h4.3a4.61,4.61,0,0,1,3.26,7.87Z"/><path d="M53.79,57.25h2v2h-2Z"/></g></svg>