<svg id="Layer_1" data-name="Layer 1" xmlns="http://www.w3.org/2000/svg" viewBox="0 0 64 64"><path d="M46.64,26.73a18.24,18.24,0,0,0,3.79-11.19V11.08h2.35a1.31,1.31,0,0,0,1.31-1.31V4.26A1.31,1.31,0,0,0,52.78,3H11.22A1.31,1.31,0,0,0,9.91,4.26V9.77a1.31,1.31,0,0,0,1.31,1.31h2.35v4.46a18.24,18.24,0,0,0,3.79,11.19A18.62,18.62,0,0,0,23.72,32a18.62,18.62,0,0,0-6.36,5.27,18.24,18.24,0,0,0-3.79,11.19v4.46H11.22a1.31,1.31,0,0,0-1.31,1.31v5.51a1.31,1.31,0,0,0,1.31,1.31H52.78a1.31,1.31,0,0,0,1.31-1.31V54.23a1.31,1.31,0,0,0-1.31-1.31H50.43V48.46a18.22,18.22,0,0,0-3.79-11.19A18.62,18.62,0,0,0,40.28,32,18.62,18.62,0,0,0,46.64,26.73ZM12.54,8.46V5.57H51.46V8.46H12.54Zm3.65,40h0a15.89,15.89,0,0,1,11.46-15.2A1.46,1.46,0,0,0,28,33.1v2.82a13.18,13.18,0,0,0-9.19,12.56v4.44H16.19ZM29.62,25.8A10.54,10.54,0,0,1,22.42,20H41.58a10.54,10.54,0,0,1-7.2,5.83,1.32,1.32,0,0,0-1,1.28v9.83a1.32,1.32,0,0,0,1,1.28,10.65,10.65,0,0,1,8.18,10.29v4.44H21.44V48.48a10.65,10.65,0,0,1,8.18-10.29,1.32,1.32,0,0,0,1-1.28V27.08A1.32,1.32,0,0,0,29.62,25.8ZM51.46,55.54v2.89H12.54V55.54H51.46Zm-3.65-7.08v4.46H45.18V48.48A13.18,13.18,0,0,0,36,35.92V33.1a1.46,1.46,0,0,0,.36.16A15.89,15.89,0,0,1,47.81,48.46ZM36.35,30.74a1.46,1.46,0,0,0-.36.16V28.08A13.16,13.16,0,0,0,44.72,19a1.33,1.33,0,0,0-.23-1.14,1.28,1.28,0,0,0-1-.52H20.55a1.28,1.28,0,0,0-1,.52A1.33,1.33,0,0,0,19.28,19,13.16,13.16,0,0,0,28,28.08V30.9a1.46,1.46,0,0,0-.36-.16,15.89,15.89,0,0,1-11.46-15.2V15.2h23.5a1.31,1.31,0,1,0,0-2.62H16.19v-1.5H47.81v4.46A15.89,15.89,0,0,1,36.35,30.74Z"/><path d="M34.87,37.84a3.5,3.5,0,0,0-.17-.55,2.49,2.49,0,0,0-.27-.51,2.73,2.73,0,0,0-.81-.8,2.19,2.19,0,0,0-.5-.27,2.69,2.69,0,0,0-.55-.17,2.74,2.74,0,0,0-1.14,0,2.69,2.69,0,0,0-.55.17,2.19,2.19,0,0,0-.5.27,2.22,2.22,0,0,0-.45.36,2.56,2.56,0,0,0-.36.44,2.49,2.49,0,0,0-.27.51,3.5,3.5,0,0,0-.17.55,2.69,2.69,0,0,0-.06.57,2.76,2.76,0,0,0,.06.57,3.5,3.5,0,0,0,.17.55,2.7,2.7,0,0,0,.27.5,3.09,3.09,0,0,0,.36.45,3,3,0,0,0,2.07.86,3.68,3.68,0,0,0,.57-.06,3.5,3.5,0,0,0,.55-.17,2.19,2.19,0,0,0,.5-.27,2.63,2.63,0,0,0,.45-.36,3.09,3.09,0,0,0,.36-.45,2.7,2.7,0,0,0,.27-.5,3.5,3.5,0,0,0,.17-.55,2.76,2.76,0,0,0,.06-.57A2.69,2.69,0,0,0,34.87,37.84Z"/><path d="M33.61,43.88a1.58,1.58,0,0,0-.09-.31,1.25,1.25,0,0,0-.15-.28,1.33,1.33,0,0,0-.21-.26,1.69,1.69,0,0,0-.25-.2,1.25,1.25,0,0,0-.28-.15,1.58,1.58,0,0,0-.31-.09,1.38,1.38,0,0,0-.64,0,1.58,1.58,0,0,0-.31.09,1.25,1.25,0,0,0-.28.15,1.69,1.69,0,0,0-.25.2,1.33,1.33,0,0,0-.21.26,1.25,1.25,0,0,0-.15.28,1.58,1.58,0,0,0-.09.31,1.3,1.3,0,0,0,0,.64,1.58,1.58,0,0,0,.09.31,1.51,1.51,0,0,0,.15.28,1.27,1.27,0,0,0,.21.25,1.64,1.64,0,0,0,1.16.49,1.12,1.12,0,0,0,.32,0,1.58,1.58,0,0,0,.31-.09,1.25,1.25,0,0,0,.28-.15,1.88,1.88,0,0,0,.46-.46,1.25,1.25,0,0,0,.15-.28,1.58,1.58,0,0,0,.09-.31,1.3,1.3,0,0,0,0-.64Z"/><path d="M34.82,28.07a60.06,60.06,0,0,1-.88,7.08A16.21,16.21,0,0,1,32,38s-2.51-3.13-2.33-4.35c.76-5-6.29-12.2-7-11.59l-1.2-3H42.56l-1.81,4Z"/><polygon points="25.12 53.68 32.31 49.96 38.88 53.68 25.12 53.68"/></svg>